<svg xmlns="http://www.w3.org/2000/svg" width="377.957" height="83.869" viewBox="0 0 10000 2219" shape-rendering="geometricPrecision" text-rendering="geometricPrecision" image-rendering="optimizeQuality" fill-rule="evenodd" clip-rule="evenodd"><path d="M1100 0c607 0 1100 492 1100 1100 0 607-493 1100-1100 1100C492 2200 0 1707 0 1100 0 492 492 0 1100 0z" fill="#158c1d"/><path fill="#5a5a5a" d="M9997 1444H2706v42h7291z"/><path d="M2722 63v1137h435V872h239c354 0 484-220 484-401 0-208-150-408-492-408h-666zm424 263h94c165 0 201 75 201 141 0 138-148 142-200 142h-95V326zM4592 43c-401 0-633 226-633 588s232 588 633 588c402 0 634-226 634-588S4994 43 4592 43zm0 273c164 0 176 197 176 315 0 119-12 315-176 315s-175-196-175-315c0-118 11-315 175-315zM6262 82c-137-29-258-39-377-39-482 0-586 210-586 369 0 279 250 327 414 361 84 17 185 26 185 94 0 70-117 79-195 79-92 0-227-11-391-76v296c180 45 355 53 469 53 497 0 555-253 555-381 0-286-256-327-457-366-74-13-142-26-142-79 0-75 101-77 187-77 158 0 265 31 338 59V82zm131-19v336h384v801h435V399h383V63H6393zm1299 0v1137h1004V932h-568V755h532V495h-532V331h557V63h-993zm1137 0v1137h435V803h98c47 0 126 13 141 113l42 284h455l-75-330c-34-153-147-196-224-208v-3c148-24 267-127 267-292 0-288-298-304-458-304h-681zm416 253h114c48 0 170 4 170 119 0 127-138 125-177 125h-107V316z"/><path d="M2722 1689h172c24 0 48 2 74 8s49 18 69 37c21 20 31 48 31 84s-8 64-26 83c-17 18-37 31-59 38v1c32 5 58 18 79 41 21 22 31 50 31 84 0 23-5 46-16 68s-32 41-62 57c-31 15-74 23-128 23h-165v-524zm106 82v130h52c31 0 52-7 64-21s17-28 17-44-6-31-17-45c-12-13-35-20-69-20h-47zm0 213v147h59c20 0 37-3 51-10 14-6 25-14 32-25s11-24 11-39c0-49-31-73-94-73h-59zm932-295v325c0 43-7 78-21 105-14 28-31 49-53 63-22 15-45 24-69 29-24 6-49 8-75 8-36 0-70-5-103-15-32-11-60-31-83-61-23-31-34-74-34-129v-325h106v325c0 82 38 123 113 123s112-41 112-123v-325h107zm223 504l12-92c20 9 42 17 66 23s45 9 63 9c25 0 45-6 61-19 15-12 23-27 23-44 0-13-2-23-8-32-5-9-12-16-21-22-9-7-20-13-33-19-14-7-29-14-44-21-27-13-49-26-66-38-17-13-31-27-40-45-10-17-15-38-15-63 0-19 4-40 13-63 9-22 25-42 50-59s59-25 102-25c56 0 106 7 150 22l-11 84c-42-17-80-25-115-25-30 0-51 5-62 17s-17 24-17 38c0 19 7 35 20 46s29 20 50 29c37 15 65 29 85 40 20 12 38 28 52 50 15 21 22 48 22 82 0 20-4 38-11 56-8 18-20 35-36 49-16 15-37 26-63 35-25 9-55 13-90 13-43 0-89-9-137-26zm558 20v-524h107v524h-107zm343-524h138l181 330 28 71h2l-2-93v-308h106v524h-138l-182-343-27-58h-2l2 92v309h-106v-524zm690 0h313v93h-207v118h188v86h-188v134h207v93h-313v-524zm522 504l11-92c20 9 42 17 66 23s45 9 63 9c25 0 46-6 61-19 16-12 23-27 23-44 0-13-2-23-7-32-6-9-13-16-21-22-9-7-20-13-34-19-14-7-28-14-43-21-27-13-49-26-67-38-17-13-30-27-40-45-10-17-15-38-15-63 0-19 5-40 13-63 9-22 26-42 50-59 25-17 59-25 102-25 56 0 106 7 150 22l-11 84c-42-17-80-25-115-25-30 0-50 5-62 17-11 12-16 24-16 38 0 19 6 35 19 46s30 20 50 29c37 15 65 29 85 40 21 12 38 28 52 50 15 21 22 48 22 82 0 20-4 38-11 56-8 18-20 35-36 49-16 15-37 26-62 35-26 9-56 13-91 13-43 0-89-9-136-26zm545 0l11-92c20 9 42 17 66 23s45 9 64 9c24 0 45-6 60-19 16-12 23-27 23-44 0-13-2-23-7-32-6-9-13-16-21-22-9-7-20-13-34-19-14-7-28-14-43-21-27-13-49-26-67-38-17-13-30-27-40-45-10-17-15-38-15-63 0-19 5-40 13-63 9-22 26-42 50-59 25-17 59-25 102-25 56 0 106 7 150 22l-11 84c-41-17-80-25-115-25-30 0-50 5-61 17-12 12-17 24-17 38 0 19 6 35 19 46s30 20 50 29c37 15 65 29 85 40 21 12 38 28 52 50 15 21 22 48 22 82 0 20-4 38-11 56-8 18-20 35-36 49-16 15-37 26-62 35-26 9-56 13-91 13-43 0-89-9-136-26zm1377-488l-6 94c-45-21-95-31-150-31-38 0-70 8-96 23-26 16-46 38-59 66-14 27-20 59-20 94 0 34 6 65 19 92s32 49 58 64c26 16 57 24 93 24 29 0 52-4 71-11v-125h-107v-82h213v278c-67 19-128 28-183 28-59 0-109-11-150-34-42-23-74-55-95-95s-32-87-32-139c0-46 8-86 23-120 14-34 35-62 62-84 26-22 57-38 92-49 34-10 72-15 113-15 57 0 108 7 154 22zm253 508v-524h106v524h-106zm342-524h294v88h-187v127h178v87h-178v222h-107v-524zm459 0h409v93h-151v431h-106v-431h-152v-93zm592 504l11-92c20 9 42 17 66 23s45 9 64 9c25 0 45-6 60-19 16-12 23-27 23-44 0-13-2-23-7-32-6-9-13-16-21-22-9-7-20-13-34-19-14-7-28-14-43-21-27-13-49-26-66-38-18-13-31-27-41-45-10-17-15-38-15-63 0-19 5-40 13-63 9-22 26-42 51-59 24-17 58-25 101-25 56 0 106 7 150 22l-11 84c-41-17-80-25-115-25-30 0-50 5-61 17-12 12-17 24-17 38 0 19 6 35 19 46s30 20 50 29c37 15 65 29 85 40 21 12 38 28 52 50 15 21 22 48 22 82 0 20-4 38-11 56-8 18-19 35-36 49-16 15-37 26-62 35-26 9-56 13-91 13-43 0-89-9-136-26z" fill="#5a5a5a" fill-rule="nonzero"/><path d="M1700 1243H705l-84 143H418l-84 144h1531zM584 1100h1033l-165-287H954l-83 144H667zm250-430h535l-165-286-83 143H917z" fill="#fff"/></svg>